# xmcd
#
# Track frame offsets:
#	150
#	21740
#	40339
#	59290
#	79807
#	99052
#	123187
#	147745
#	165130
#	186647
#	205187
#	224142
#	244647
#	263947
#	288105
#	312590
#
# Disc length: 4400 seconds
#
# Revision: 1
# Processed by: cddbd v1.5.2PL0 Copyright (c) Steve Scherf et al.
# Submitted via: audiograbber 1.83.01
#
DISCID=f2112e10
DTITLE=Raitt, Bonnie - SC2139
DYEAR=1900
DGENRE=
TTITLE0=I Can't Make You Love Me
TTITLE1=Thing Called Love
TTITLE2=Nick Of Time
TTITLE3=Come To Me
TTITLE4=Love Letter
TTITLE5=Not The Only One
TTITLE6=One Part Be My Lover
TTITLE7=Love Sneakin' Up On You
TTITLE8=#
TTITLE9=#
TTITLE10=#
TTITLE11=#
TTITLE12=#
TTITLE13=#
TTITLE14=#
TTITLE15=#
EXTD=
EXTT0=
EXTT1=
EXTT2=
EXTT3=
EXTT4=
EXTT5=
EXTT6=
EXTT7=
EXTT8=
EXTT9=
EXTT10=
EXTT11=
EXTT12=
EXTT13=
EXTT14=
EXTT15=
PLAYORDER=
